<svg width="12" height="13" viewBox="0 0 12 13" fill="none" xmlns="http://www.w3.org/2000/svg">
<g clip-path="url(#clip0_31_2135)">
<path d="M2.54928 13C2.36516 12.95 2.17403 12.9207 1.9986 12.8485C0.879029 12.3803 0.171696 11.527 0.0214854 10.2197C-0.0743577 9.38693 0.151238 8.62358 0.682579 8.00326C1.15899 7.44567 1.6581 6.90566 2.17487 6.3905C2.73256 5.83412 3.41355 5.61321 4.16992 5.67897C4.45941 5.70412 4.65362 5.94049 4.64409 6.24049C4.63456 6.5405 4.41289 6.75566 4.11668 6.76717C3.9177 6.77414 3.71565 6.77808 3.52172 6.82051C3.20336 6.89051 2.94106 7.08324 2.71322 7.33052C2.30855 7.76962 1.90051 8.2063 1.50117 8.64964C0.842597 9.37905 0.854368 10.4697 1.51602 11.2333C1.9064 11.684 2.36936 11.9437 2.95002 11.9061C3.38636 11.8779 3.75684 11.684 4.06539 11.3503C4.46745 10.9158 4.86913 10.4809 5.27044 10.0457C5.63924 9.64391 5.8029 9.16087 5.77151 8.59388C5.75358 8.28024 5.93013 8.03841 6.19188 7.98993C6.42924 7.94569 6.69351 8.10357 6.7504 8.3563C6.7849 8.52829 6.7965 8.70472 6.78487 8.88025C6.74984 9.61876 6.4937 10.2591 6.0142 10.787C5.57338 11.2718 5.12919 11.7546 4.6752 12.2252C4.27053 12.6449 3.7801 12.887 3.22382 12.9713C3.20263 12.9781 3.18251 12.9883 3.16413 13.0016L2.54928 13Z" fill="white"/>
<path d="M12.0001 3.56436C11.9373 3.77891 11.8849 3.9977 11.8098 4.2071C11.6787 4.57348 11.4693 4.88863 11.2135 5.165C10.7625 5.6535 10.3203 6.1526 9.85035 6.61958C9.29379 7.17141 8.61728 7.38809 7.86707 7.33536C7.55881 7.31354 7.35899 7.05293 7.38505 6.73504C7.40944 6.43534 7.66081 6.21836 7.95367 6.24261C8.46147 6.28412 8.89977 6.10927 9.26184 5.72744C9.68221 5.2844 10.0989 4.83712 10.507 4.38074C11.1964 3.60951 11.1767 2.51221 10.4815 1.74159C10.0928 1.31067 9.64073 1.06945 9.07576 1.10521C8.67922 1.12945 8.32779 1.28219 8.04363 1.57856C7.59094 2.05069 7.14601 2.53131 6.70883 3.02041C6.36441 3.40587 6.21924 3.87679 6.25568 4.41438C6.27782 4.74136 6.06511 5.00652 5.77926 5.02258C5.47912 5.03924 5.25521 4.80197 5.24092 4.44681C5.20757 3.61133 5.44045 2.87525 5.97655 2.26918C6.41766 1.77068 6.8652 1.27703 7.33153 0.806114C8.42896 -0.302094 10.0412 -0.254517 11.1311 0.89854C11.5657 1.35825 11.8659 1.89493 11.9771 2.54706C11.9829 2.56579 11.9909 2.58362 12.0009 2.6001L12.0001 3.56436Z" fill="white"/>
<path d="M3.73232 9.49658C3.5283 9.48689 3.37389 9.38628 3.29037 9.18476C3.24871 9.09365 3.23235 8.99143 3.2433 8.89048C3.25424 8.78953 3.29201 8.69418 3.35203 8.61596C3.38133 8.57679 3.41278 8.53955 3.44619 8.50444C4.86889 6.96501 6.29168 5.42538 7.71457 3.88555C7.86114 3.72676 8.02284 3.62221 8.23582 3.66645C8.31952 3.68426 8.39767 3.72474 8.46297 3.78409C8.52828 3.84344 8.57859 3.91972 8.60922 4.00582C8.63984 4.09191 8.64978 4.18499 8.63809 4.27637C8.62641 4.36774 8.59349 4.45441 8.54241 4.52829C8.5142 4.56791 8.48339 4.60528 8.45021 4.64011C7.02078 6.18681 5.59154 7.73351 4.16249 9.28021C4.04058 9.41022 3.91027 9.50537 3.73232 9.49658Z" fill="white"/>
</g>
<defs>
<clipPath id="clip0_31_2135">
<rect width="12" height="13" fill="white"/>
</clipPath>
</defs>
</svg>
