<svg width="30" height="30" viewBox="0 0 30 30" fill="none" xmlns="http://www.w3.org/2000/svg">
<path d="M5.625 13.125H24.375C24.8718 13.1235 25.3479 12.9255 25.6992 12.5742C26.0505 12.2229 26.2485 11.7468 26.25 11.25V5.625C26.2485 5.12817 26.0505 4.65211 25.6992 4.3008C25.3479 3.94948 24.8718 3.75147 24.375 3.75H5.625C5.12817 3.75147 4.65211 3.94948 4.3008 4.3008C3.94948 4.65211 3.75147 5.12817 3.75 5.625V11.25C3.75147 11.7468 3.94948 12.2229 4.3008 12.5742C4.65211 12.9255 5.12817 13.1235 5.625 13.125ZM8.4375 5.625C8.99376 5.625 9.53753 5.78995 10 6.09899C10.4626 6.40803 10.823 6.84729 11.0359 7.3612C11.2488 7.87512 11.3045 8.44062 11.196 8.98619C11.0874 9.53176 10.8196 10.0329 10.4262 10.4262C10.0329 10.8196 9.53176 11.0874 8.98619 11.196C8.44062 11.3045 7.87512 11.2488 7.3612 11.0359C6.84729 10.823 6.40803 10.4626 6.09899 10C5.78995 9.53753 5.625 8.99376 5.625 8.4375C5.625 7.69158 5.92132 6.97621 6.44876 6.44876C6.97621 5.92132 7.69158 5.625 8.4375 5.625ZM24.5625 16.9579C23.2324 16.582 22.5 15.9082 22.5 15.9082C22.5 15.9082 21.7676 16.582 20.4375 16.9579C18.8408 17.4076 17.8125 17.2465 17.8125 17.2465C17.8125 17.2465 17.8251 18.4641 18.1875 20.6136C18.5742 22.9102 19.7812 24.232 20.7188 24.7383C21.7345 25.2867 22.5 25.2832 22.5 25.2832C22.5 25.2832 23.2655 25.2876 24.2812 24.7392C25.2188 24.2329 26.4252 22.9107 26.8125 20.6147C27.1749 18.4641 27.1875 17.2468 27.1875 17.2468C27.1875 17.2468 26.1592 17.4076 24.5625 16.9579Z" fill="white"/>
<path d="M17.325 20.647C16.9986 18.7114 16.9087 17.4056 16.8855 16.8741H5.625C5.12817 16.8756 4.65211 17.0736 4.3008 17.4249C3.94948 17.7763 3.75147 18.2523 3.75 18.7491V24.375C3.75147 24.8719 3.94948 25.3479 4.3008 25.6992C4.65211 26.0505 5.12817 26.2486 5.625 26.25H22.4643C22.2861 26.2433 21.4427 26.1803 20.3625 25.597C19.2375 24.9903 17.7896 23.4021 17.325 20.647ZM8.4375 24.375C7.88124 24.375 7.33747 24.2101 6.87496 23.901C6.41245 23.592 6.05196 23.1527 5.83909 22.6388C5.62622 22.1249 5.57052 21.5594 5.67904 21.0138C5.78756 20.4683 6.05543 19.9671 6.44876 19.5738C6.8421 19.1805 7.34324 18.9126 7.88881 18.8041C8.43438 18.6955 8.99988 18.7512 9.5138 18.9641C10.0277 19.177 10.467 19.5375 10.776 20C11.085 20.4625 11.25 21.0063 11.25 21.5625C11.25 22.3084 10.9537 23.0238 10.4262 23.5513C9.89879 24.0787 9.18342 24.375 8.4375 24.375Z" fill="white"/>
</svg>
