<svg width="44" height="44" viewBox="0 0 44 44" fill="none" xmlns="http://www.w3.org/2000/svg">
<circle cx="22" cy="22" r="22" fill="#1873B9"/>
<path d="M29.0337 30.172C29.7349 32.7246 32.2857 34 32.2857 34C28.3994 34 26.1657 32.8994 24.9589 31.9429C24.0126 32.1657 23.0217 32.2857 22 32.2857C15.3726 32.2857 10 27.2971 10 21.1429C10 14.9886 15.3726 10 22 10C28.6274 10 34 14.9886 34 21.1429C34 21.3537 33.9931 21.5646 33.9811 21.7737C32.7422 23.4891 31.0404 24.8163 29.0749 25.6C28.3699 25.8863 27.6391 26.1044 26.8926 26.2514C26.6891 25.9176 26.3776 25.6633 26.0098 25.5308C25.6419 25.3983 25.2399 25.3955 24.8702 25.5229C24.5006 25.6503 24.1856 25.9002 23.9775 26.2312C23.7694 26.5621 23.6807 26.9543 23.7261 27.3426C23.7715 27.731 23.9482 28.0921 24.227 28.3662C24.5058 28.6403 24.87 28.8108 25.259 28.8495C25.6481 28.8882 26.0387 28.7928 26.366 28.579C26.6934 28.3653 26.9378 28.0461 27.0589 27.6743C27.9113 27.5141 28.7461 27.2712 29.5514 26.9491C30.9854 26.3787 32.3039 25.5527 33.4429 24.5114C32.6577 26.8103 31.0909 28.7869 29.0337 30.172ZM14.8394 21.088C15.9194 21.2783 17.032 20.1023 17.32 18.4617C17.6114 16.8211 16.9686 15.3366 15.8869 15.1446C14.8051 14.956 13.6926 16.1303 13.4046 17.7709C13.1131 19.4131 13.756 20.8977 14.8377 21.088H14.8394ZM24.1651 22.048C25.2451 22.2383 26.3577 21.0623 26.6457 19.4217C26.9371 17.7811 26.2943 16.2966 25.2126 16.1046C24.1309 15.916 23.0183 17.0903 22.7303 18.7309C22.4389 20.3731 23.0817 21.8577 24.1634 22.048H24.1651Z" fill="white"/>
</svg>
