<svg width="18" height="18" viewBox="0 0 18 18" fill="none" xmlns="http://www.w3.org/2000/svg">
<path d="M16.7767 5.52651C16.5691 5.73682 16.3216 5.9036 16.0488 6.01709C15.7759 6.13058 15.4832 6.18849 15.1877 6.18745C15.0077 6.18768 14.8283 6.16643 14.6533 6.12417L12.7759 9.59761L12.8392 9.66089C13.0484 9.86928 13.2144 10.1169 13.3277 10.3896C13.4409 10.6623 13.4992 10.9547 13.4992 11.25C13.4992 11.5452 13.4409 11.8376 13.3277 12.1103C13.2144 12.383 13.0484 12.6306 12.8392 12.839C12.6308 13.0482 12.3832 13.2142 12.1105 13.3275C11.8378 13.4407 11.5454 13.499 11.2502 13.499C10.9549 13.499 10.6625 13.4407 10.3898 13.3275C10.1171 13.2142 9.86949 13.0482 9.6611 12.839C9.30736 12.4867 9.08083 12.0268 9.01718 11.5316C8.95353 11.0364 9.05638 10.5342 9.30954 10.1039L7.89626 8.69058C7.54789 8.89225 7.15269 8.99893 6.75016 8.99995C6.57015 9.00018 6.39076 8.97893 6.21579 8.93667L4.33844 12.4101L4.40172 12.4734C4.61092 12.6818 4.7769 12.9294 4.89016 13.2021C5.00342 13.4748 5.06172 13.7672 5.06172 14.0625C5.06172 14.3577 5.00342 14.6501 4.89016 14.9228C4.7769 15.1955 4.61092 15.4431 4.40172 15.6515C4.19333 15.8607 3.94569 16.0267 3.673 16.14C3.40031 16.2532 3.10794 16.3115 2.81266 16.3115C2.51739 16.3115 2.22501 16.2532 1.95232 16.14C1.67963 16.0267 1.43199 15.8607 1.2236 15.6515C1.01441 15.4431 0.848419 15.1955 0.73516 14.9228C0.621901 14.6501 0.563599 14.3577 0.563599 14.0625C0.563599 13.7672 0.621901 13.4748 0.73516 13.2021C0.848419 12.9294 1.01441 12.6818 1.2236 12.4734V12.4734C1.49683 12.2004 1.83554 12.0021 2.20733 11.8975C2.57911 11.7928 2.97153 11.7853 3.34704 11.8757L5.22438 8.40229L5.1611 8.33901C4.95191 8.13062 4.78592 7.88298 4.67266 7.61029C4.5594 7.3376 4.5011 7.04523 4.5011 6.74995C4.5011 6.45468 4.5594 6.1623 4.67266 5.88961C4.78592 5.61692 4.95191 5.36928 5.1611 5.16089V5.16089C5.54815 4.77224 6.06384 4.53836 6.61122 4.50322C7.1586 4.46808 7.69997 4.63411 8.13354 4.97008C8.56711 5.30605 8.86302 5.78883 8.96563 6.32765C9.06825 6.86648 8.97051 7.42423 8.69079 7.89605L10.1041 9.30933C10.6116 9.01375 11.2136 8.92559 11.7845 9.06323L13.6619 5.58979L13.5986 5.52651C13.3894 5.31812 13.2234 5.07048 13.1102 4.79779C12.9969 4.5251 12.9386 4.23273 12.9386 3.93745C12.9386 3.64218 12.9969 3.3498 13.1102 3.07711C13.2234 2.80442 13.3894 2.55678 13.5986 2.34839V2.34839C14.0266 1.96058 14.5874 1.75221 15.1647 1.76643C15.7421 1.78065 16.292 2.01636 16.7004 2.42476C17.1088 2.83316 17.3445 3.38297 17.3587 3.96037C17.3729 4.53776 17.1645 5.09851 16.7767 5.52651V5.52651Z" fill="#616161"/>
</svg>
