<svg width="18" height="18" viewBox="0 0 18 18" fill="none" xmlns="http://www.w3.org/2000/svg">
<path d="M4.50002 9.84373C4.50097 9.91786 4.48706 9.99143 4.45913 10.0601C4.43119 10.1288 4.3898 10.1912 4.33737 10.2436C4.28495 10.296 4.22257 10.3374 4.15389 10.3653C4.08522 10.3933 4.01165 10.4072 3.93752 10.4062H0.843772C0.739273 10.4054 0.63697 10.3762 0.5478 10.3217C0.45863 10.2672 0.385947 10.1895 0.337522 10.0969C0.292493 10.0026 0.27394 9.89779 0.283847 9.79375C0.293755 9.68972 0.331751 9.59034 0.393772 9.50623C0.891576 8.838 1.55584 8.31193 2.32033 7.98045C1.99183 7.67974 1.73943 7.30532 1.58392 6.888C1.4284 6.47068 1.37421 6.02239 1.42581 5.58004C1.4774 5.13768 1.63331 4.7139 1.8807 4.34358C2.12809 3.97325 2.45989 3.66697 2.84878 3.44994C3.23768 3.23291 3.67255 3.11134 4.11762 3.09523C4.56268 3.07911 5.00521 3.16892 5.40878 3.35726C5.81235 3.54561 6.16542 3.82709 6.43894 4.17856C6.71246 4.53003 6.89861 4.94142 6.98205 5.37889C7.00286 5.49283 6.98843 5.6104 6.94069 5.71592C6.89295 5.82145 6.81417 5.90991 6.71487 5.96951C5.80546 6.50878 5.11382 7.3497 4.76018 8.34608C4.58585 8.82606 4.49778 9.33308 4.50002 9.84373V9.84373ZM17.6063 9.50623C17.1085 8.838 16.4442 8.31193 15.6797 7.98045C16.0082 7.67974 16.2606 7.30532 16.4161 6.888C16.5716 6.47068 16.6258 6.02239 16.5742 5.58004C16.5226 5.13768 16.3667 4.7139 16.1193 4.34358C15.872 3.97325 15.5402 3.66697 15.1513 3.44994C14.7624 3.23291 14.3275 3.11134 13.8824 3.09523C13.4374 3.07911 12.9948 3.16892 12.5913 3.35726C12.1877 3.54561 11.8346 3.82709 11.5611 4.17856C11.2876 4.53003 11.1014 4.94142 11.018 5.37889C10.9972 5.49283 11.0116 5.6104 11.0594 5.71592C11.1071 5.82145 11.1859 5.90991 11.2852 5.96951C12.1958 6.50739 12.8878 7.34881 13.2399 8.34608C13.4142 8.82606 13.5023 9.33308 13.5 9.84373C13.4991 9.91786 13.513 9.99143 13.5409 10.0601C13.5689 10.1288 13.6102 10.1912 13.6627 10.2436C13.7151 10.296 13.7775 10.3374 13.8462 10.3653C13.9148 10.3933 13.9884 10.4072 14.0625 10.4062H17.1563C17.2607 10.4062 17.3631 10.3771 17.452 10.3222C17.5409 10.2673 17.6127 10.1887 17.6594 10.0953C17.7061 10.0019 17.7259 9.89726 17.7165 9.79322C17.7071 9.68918 17.6689 9.5898 17.6063 9.50623ZM11.0531 12.5226C11.613 12.0936 12.0243 11.4999 12.2293 10.825C12.4343 10.1501 12.4227 9.42794 12.1962 8.75997C11.9697 8.092 11.5395 7.51179 10.9663 7.10087C10.393 6.68995 9.70536 6.46896 9.00002 6.46896C8.29468 6.46896 7.60707 6.68995 7.03379 7.10087C6.46051 7.51179 6.03038 8.092 5.80384 8.75997C5.5773 9.42794 5.56572 10.1501 5.77075 10.825C5.97577 11.4999 6.38708 12.0936 6.9469 12.5226C5.85321 13.0082 4.96653 13.865 4.44377 14.9414C4.40218 15.0269 4.38355 15.1218 4.38971 15.2167C4.39588 15.3117 4.42662 15.4033 4.47893 15.4828C4.52761 15.5643 4.59662 15.6318 4.67919 15.6786C4.76177 15.7254 4.85509 15.75 4.95002 15.75H13.05C13.145 15.75 13.2383 15.7254 13.3209 15.6786C13.4034 15.6318 13.4724 15.5643 13.5211 15.4828C13.5734 15.4033 13.6042 15.3117 13.6103 15.2167C13.6165 15.1218 13.5979 15.0269 13.5563 14.9414C13.0335 13.865 12.1468 13.0082 11.0531 12.5226Z" fill="#616161"/>
</svg>
