<svg width="18" height="18" viewBox="0 0 18 18" fill="none" xmlns="http://www.w3.org/2000/svg">
<path d="M16.0217 0H1.91357V3.64751H7.26466V9.00868H10.6706V3.64751H16.0217V0Z" fill="#616161"/>
<path d="M9.00008 9.57957C4.57349 9.57957 0.984695 8.82933 0.984695 7.90373C0.984695 6.97829 4.57334 6.22789 9.00008 6.22789C13.4267 6.22789 17.0153 6.97829 17.0153 7.90373C17.0153 8.82933 13.4267 9.57957 9.00008 9.57957ZM18 8.18312C18 6.98962 13.9706 6.02222 9.00008 6.02222C4.02967 6.02222 0 6.98962 0 8.18312C0 9.23413 3.12453 10.1098 7.2649 10.3038V18H10.6706V10.3068C14.8428 10.1189 18 9.23956 18 8.18312Z" fill="#616161"/>
</svg>
