<svg width="24" height="24" viewBox="0 0 24 24" fill="none" xmlns="http://www.w3.org/2000/svg">
<path d="M8.32705 10.5016L15.8765 10.4625L12.246 21L8.32705 10.5016ZM9.19227 6.68226L14.9434 6.74102L15.9614 9.30685L8.4967 9.2481L9.19227 6.68226ZM7.54665 9.16975L3 6.97606L5.44298 4.8803L8.36098 6.6235L7.54665 9.16975ZM3 8.24918L7.30914 10.4625L11.9406 20.9217L3 8.24918ZM16.9623 10.4429L21 8.03373L12.5005 20.8629L16.9623 10.4429ZM16.8775 9.15016L15.7408 6.44723L18.3365 4.78237L20.5759 6.95647L16.8775 9.15016ZM9.10745 5.38955L8.12347 5.09576L6.27427 3.90098L8.44581 3H15.5372L17.6918 4.03808L15.6221 5.19369L14.9265 5.38955H9.10745Z" fill="#1873B9"/>
</svg>
