<svg width="24" height="24" viewBox="0 0 24 24" fill="none" xmlns="http://www.w3.org/2000/svg">
<path d="M16.4836 22.1585L13.8101 19.2732C17.2973 18.7923 20.087 15.7869 20.087 12.1803C20.087 8.69399 17.5298 5.68852 14.1589 5.08743L11.7179 2.56284H12.764C18.111 2.56284 22.4118 6.89071 22.4118 12.1803C22.4118 15.7869 20.3195 19.0328 17.4135 20.5956V23L16.4836 22.1585ZM13.9264 21.6776C13.5777 21.6776 13.1127 21.7978 12.6478 21.7978C7.30081 21.7978 3 17.4699 3 12.1803C3 8.57377 5.09229 5.32787 7.99824 3.76503V1L9.50933 2.56284L11.8341 4.96721C8.23071 5.32787 5.441 8.45355 5.441 12.1803C5.441 15.7869 8.11448 18.7923 11.6016 19.2732L13.9264 21.6776Z" fill="#1873B9"/>
<circle cx="12.706" cy="11.9999" r="3.23529" fill="#1873B9"/>
</svg>
